<svg id="Livello_1" data-name="Livello 1" xmlns="http://www.w3.org/2000/svg" xmlns:xlink="http://www.w3.org/1999/xlink" viewBox="0 0 196 187"><defs><style>.cls-1{filter:url(#filter-2);}.cls-2{fill:#fff;}</style><filter id="filter-2" x="-3.5" y="-3.1" width="106.9" height="107.3" name="filter-2"><feOffset result="shadowOffsetOuter1" dy="1" in="SourceAlpha"/><feGaussianBlur result="shadowBlurOuter1" stdDeviation="2" in="shadowOffsetOuter1"/><feColorMatrix values="0 0 0 0 0 0 0 0 0 0 0 0 0 0 0 0 0 0 0.5 0" in="shadowBlurOuter1"/></filter></defs><title>bkg-operative-mode</title><g id="Asset"><g id="BkgOperativemode"><g class="cls-1"><path id="path-1" d="M116.84,142.75A74.85,74.85,0,1,1,154.4,77.9a74.3,74.3,0,0,1-6.15,29.7,39,39,0,0,1,6.15-.5,37.45,37.45,0,1,1-37.6,37.45C116.8,144,116.81,143.34,116.84,142.75Z"/></g><path id="path-1-2" data-name="path-1" class="cls-2" d="M116.84,142.75A74.85,74.85,0,1,1,154.4,77.9a74.3,74.3,0,0,1-6.15,29.7,39,39,0,0,1,6.15-.5,37.45,37.45,0,1,1-37.6,37.45C116.8,144,116.81,143.34,116.84,142.75Z"/></g></g></svg>