<svg id="Livello_1" data-name="Livello 1" xmlns="http://www.w3.org/2000/svg" viewBox="0 0 38 35"><defs></defs><title>connect</title><g id="Asset"><g id="Connect"><path id="Fill-1" class="connect-icon-class" d="M32.05,32.56A3.9,3.9,0,1,1,36,28.67a3.9,3.9,0,0,1-3.91,3.89M5.56,20.86A3.9,3.9,0,1,1,9.46,17a3.91,3.91,0,0,1-3.9,3.9M32.05,1.65a3.9,3.9,0,1,1-3.9,3.89,3.9,3.9,0,0,1,3.9-3.89m0,21.47a5.56,5.56,0,0,0-4.7,2.6L10.88,18.53A5.42,5.42,0,0,0,11.11,17,5.66,5.66,0,0,0,11,15.65l16.4-7.16a5.54,5.54,0,1,0-.85-2.95A5.27,5.27,0,0,0,26.69,7L10.33,14.12a5.55,5.55,0,1,0-.15,5.9l16.51,7.2a5.34,5.34,0,0,0-.19,1.45,5.56,5.56,0,1,0,5.55-5.55"/></g></g></svg>