<svg id="Livello_1" data-name="Livello 1" xmlns="http://www.w3.org/2000/svg" viewBox="0 0 538.61 584.95"><defs><style>.cls-1{fill:#fff;}.cls-2{fill:#0071bc;}.cls-3{fill:none;stroke:#fff;stroke-miterlimit:10;stroke-width:21px;}</style></defs><title>coordinator_icon</title><path class="cls-1" d="M497.57,0H41A41.16,41.16,0,0,0,0,41V497.57a41.16,41.16,0,0,0,41,41H218.72l43,43a11.38,11.38,0,0,0,16,0l43-43H497.57a41.16,41.16,0,0,0,41-41V41A41.16,41.16,0,0,0,497.57,0Z"/><path class="cls-2" d="M480.36,22.05H58.25A38.06,38.06,0,0,0,20.31,60V482.11a38,38,0,0,0,37.94,37.94H222.54l39.79,39.79a10.51,10.51,0,0,0,14.83,0L317,520.05H480.36a38.06,38.06,0,0,0,37.95-37.94V60A38.06,38.06,0,0,0,480.36,22.05Z"/><rect class="cls-1" x="262.23" y="167.11" width="24.34" height="52.85"/><polygon class="cls-1" points="246.48 175.28 274.39 126.94 302.31 175.28 246.48 175.28"/><rect class="cls-1" x="262.22" y="302.94" width="24.34" height="52.85"/><polygon class="cls-1" points="302.31 347.62 274.4 395.95 246.48 347.62 302.31 347.62"/><rect class="cls-1" x="312.89" y="250.28" width="52.85" height="24.34"/><polygon class="cls-1" points="357.57 234.54 405.9 262.45 357.57 290.36 357.57 234.54"/><rect class="cls-1" x="177.05" y="250.28" width="52.85" height="24.34"/><polygon class="cls-1" points="185.22 290.36 136.89 262.45 185.22 234.54 185.22 290.36"/><circle class="cls-3" cx="274.31" cy="261.95" r="203"/></svg>