<svg id="Livello_1" data-name="Livello 1" xmlns="http://www.w3.org/2000/svg" viewBox="0 0 538.61 584.95"><defs><style>.cls-1{fill:#0071bc;}.cls-2{fill:#fff;}.cls-3{fill:#333;}.cls-4{fill:none;stroke:#333;stroke-miterlimit:10;stroke-width:21px;}</style></defs><title>dcu_icon</title><path class="cls-1" d="M269.74,562.4a9.91,9.91,0,0,1-7.06-2.91l-39.94-39.94H58.25a37.48,37.48,0,0,1-37.44-37.44V60A37.48,37.48,0,0,1,58.25,22.55H480.36A37.49,37.49,0,0,1,517.81,60V482.11a37.49,37.49,0,0,1-37.45,37.44H316.74L276.8,559.49A9.9,9.9,0,0,1,269.74,562.4Z"/><path class="cls-2" d="M480.36,23.05a37,37,0,0,1,36.95,37V482.11a37,37,0,0,1-36.95,36.94H316.53l-.29.3-39.79,39.79a9.52,9.52,0,0,1-13.41,0l-39.8-39.79-.29-.3H58.25a37,37,0,0,1-36.94-36.94V60A37,37,0,0,1,58.25,23.05H480.36m0-1H58.25A38.06,38.06,0,0,0,20.31,60V482.11a38,38,0,0,0,37.94,37.94H222.54l39.79,39.79a10.51,10.51,0,0,0,14.83,0L317,520.05H480.36a38.06,38.06,0,0,0,37.95-37.94V60a38.06,38.06,0,0,0-37.95-37.95Z"/><circle class="cls-2" cx="274.31" cy="261.95" r="213"/><rect class="cls-3" x="265.8" y="195.14" width="17.14" height="37.23"/><polygon class="cls-3" points="254.71 200.9 274.37 166.85 294.03 200.9 254.71 200.9"/><rect class="cls-3" x="265.79" y="290.83" width="17.14" height="37.23"/><polygon class="cls-3" points="294.03 322.3 274.37 356.35 254.71 322.3 294.03 322.3"/><rect class="cls-3" x="301.48" y="253.73" width="37.23" height="17.14"/><polygon class="cls-3" points="332.96 242.64 367.01 262.3 332.96 281.96 332.96 242.64"/><rect class="cls-3" x="205.8" y="253.73" width="37.23" height="17.14"/><polygon class="cls-3" points="211.55 281.96 177.5 262.3 211.55 242.64 211.55 281.96"/><circle class="cls-4" cx="274.31" cy="261.95" r="143"/></svg>