<svg id="Livello_1" data-name="Livello 1" xmlns="http://www.w3.org/2000/svg" viewBox="0 0 442.22 622"><defs></defs><title>light_bulb_on</title><path class="cls-1" d="M221.11,621.19C216,614.76,163.18,547.32,111,467.07,60.57,389.61.5,284.07.5,221.11a220.6,220.6,0,0,1,376.6-156,219.13,219.13,0,0,1,64.62,156c0,63-60.08,168.51-110.47,246C279,547.32,226.17,614.77,221.11,621.19Z"/><path class="cls-2" d="M221.11,1A219.93,219.93,0,0,1,441.22,221.11c0,27.7-11.59,66-34.45,113.72-18.32,38.27-43.87,82.67-75.94,132C279.76,545.3,228.05,611.55,221.11,620.38c-6.94-8.83-58.65-75.08-109.73-153.59-32.06-49.29-57.61-93.69-75.93-132C12.59,287.07,1,248.81,1,221.11A219.93,219.93,0,0,1,221.11,1m0-1C99,0,0,99,0,221.11S221.11,622,221.11,622,442.22,343.23,442.22,221.11,343.23,0,221.11,0Z"/><circle class="cls-2" cx="220.88" cy="221.63" r="183.5"/><path d="M97.94,268.11a3.45,3.45,0,0,0-1.27,4.71h0l3.44,6a3.44,3.44,0,0,0,4.7,1.26h0l42.72-24.66A89.49,89.49,0,0,1,139.8,244ZM128.31,200H83.38a3.44,3.44,0,0,0-3.44,3.44v6.89a3.44,3.44,0,0,0,3.44,3.45h45.87A91.51,91.51,0,0,1,128.31,200ZM97.94,145.7l36.67,21.17a87.37,87.37,0,0,1,6.1-12.39l-35.88-20.72a3.46,3.46,0,0,0-4.71,1.26h0l-3.44,6A3.44,3.44,0,0,0,97.94,145.7Zm239.59,0a3.46,3.46,0,0,0,1.26-4.71h0l-3.45-6a3.44,3.44,0,0,0-4.7-1.26h0l-35.91,20.73a89.55,89.55,0,0,1,6.14,12.37ZM352.08,200H307.3a89.25,89.25,0,0,1-1.25,13.78h46a3.45,3.45,0,0,0,3.45-3.45v-6.89A3.45,3.45,0,0,0,352.08,200Zm-14.55,68.09L295.59,243.9a88.47,88.47,0,0,1-7.81,11.4l42.86,24.75a3.44,3.44,0,0,0,4.7-1.27l3.45-6A3.45,3.45,0,0,0,337.53,268.11ZM217.73,151.79A48.29,48.29,0,0,0,169.5,200a6.89,6.89,0,0,0,13.78,0,34.48,34.48,0,0,1,34.45-34.45,6.89,6.89,0,0,0,0-13.78Zm0-27.56c-44.33,0-75.84,36-75.78,75.89a75.32,75.32,0,0,0,18.75,49.75c11.05,12.6,21.66,33.12,22.58,39.71l0,32.38a6.84,6.84,0,0,0,1.15,3.8L195,341.63a6.89,6.89,0,0,0,5.73,3.07h34a6.87,6.87,0,0,0,5.73-3.07L251,325.76a6.84,6.84,0,0,0,1.15-3.8l0-32.38c1-6.77,11.62-27.21,22.58-39.71a75.74,75.74,0,0,0-57-125.64Zm20.65,195.63L231,330.92H204.44l-7.36-11.06v-2.72h41.3Zm0-16.5H197.07l0-13.78h41.37Zm26-62.57a147,147,0,0,0-21.78,35H192.85a147,147,0,0,0-21.78-35A61.77,61.77,0,0,1,155.75,200c-.08-33.15,26-62,62-62A62,62,0,0,1,264.4,240.79Z"/></svg>