<svg id="Livello_1" data-name="Livello 1" xmlns="http://www.w3.org/2000/svg" xmlns:xlink="http://www.w3.org/1999/xlink" viewBox="0 0 138 143"><defs><style>.cls-1{opacity:0.1;isolation:isolate;filter:url(#filter-1);}.cls-2{fill:#fafafb;}.cls-3{filter:url(#filter-4);}.cls-4{fill:url(#Sfumatura_senza_nome);}.cls-5{filter:url(#filter-5);}.cls-6{fill:none;stroke:#d92d2c;stroke-linecap:round;stroke-width:4.5px;}.cls-7{fill:#d92d2c;}</style><filter id="filter-1" x="-11.3" y="-19.5" width="122.5" height="139" name="filter-1"><feGaussianBlur stdDeviation="4.4" in="SourceGraphic"/></filter><filter id="filter-4" x="-5.7" y="-4.8" width="111.4" height="111.4" name="filter-4"><feOffset result="shadowOffsetOuter1" dy="1" in="SourceAlpha"/><feGaussianBlur result="shadowBlurOuter1" stdDeviation="2" in="shadowOffsetOuter1"/><feColorMatrix values="0 0 0 0 0.79 0 0 0 0 0.8 0 0 0 0 0.82 0 0 0 1 0" in="shadowBlurOuter1"/></filter><linearGradient id="Sfumatura_senza_nome" x1="-233.42" y1="465.15" x2="-233.42" y2="464.15" gradientTransform="matrix(113.6, 0, 0, -113.62, 26584.93, 52852.46)" gradientUnits="userSpaceOnUse"><stop offset="0" stop-color="#fff"/><stop offset="1" stop-color="#f9f9f9"/></linearGradient><filter id="filter-5" x="-4.8" y="-4" width="109.7" height="109.7" name="filter-5"><feGaussianBlur result="shadowBlurInner1" stdDeviation="0.5" in="SourceAlpha"/><feOffset result="shadowOffsetInner1" dy="2" in="shadowBlurInner1"/><feComposite result="shadowInnerInner1" operator="arithmetic" k2="-1" k3="1" in="shadowOffsetInner1" in2="SourceAlpha"/><feColorMatrix values="0 0 0 0 1 0 0 0 0 1 0 0 0 0 1 0 0 0 1 0" in="shadowInnerInner1"/></filter></defs><title>onoff</title><g id="Asset"><g id="OnOff"><g id="OnOffBnt"><g class="cls-1"><path d="M10,65.22c0,37.35,26.23,67.63,58.6,67.63h0c32.36,0,58.6-30.28,58.6-67.63"/></g><path id="Oval" class="cls-2" d="M1,59.81a67.62,67.62,0,0,0,67.62,67.63h0a67.63,67.63,0,0,0,67.62-67.63"/><g id="Shape"><g class="cls-3"><path id="path-3" d="M68.62,116.62a56.81,56.81,0,1,0-56.8-56.81A56.81,56.81,0,0,0,68.62,116.62Z"/></g><path id="path-3-2" data-name="path-3" class="cls-4" d="M68.62,116.62a56.81,56.81,0,1,0-56.8-56.81A56.81,56.81,0,0,0,68.62,116.62Z"/><g class="cls-5"><path id="path-3-3" data-name="path-3" d="M68.62,116.62a56.81,56.81,0,1,0-56.8-56.81A56.81,56.81,0,0,0,68.62,116.62Z"/></g></g></g><g id="OnOff_IcoON" data-name="OnOff IcoON"><path id="Shape-2" data-name="Shape" class="cls-6" d="M55.31,46.34a18.94,18.94,0,1,0,26.74.13"/><path id="Rectangle" class="cls-7" d="M68.62,31.86h0a2.7,2.7,0,0,1,2.7,2.7v18a2.7,2.7,0,0,1-2.7,2.7h0a2.7,2.7,0,0,1-2.71-2.7v-18A2.7,2.7,0,0,1,68.62,31.86Z"/></g></g></g></svg>