<svg id="Livello_1" data-name="Livello 1" xmlns="http://www.w3.org/2000/svg" viewBox="0 0 538.61 584.95"><defs><style>.cls-1{fill:#fff;}.cls-2{fill:#04a339;}</style></defs><title>pole_icon</title><path class="cls-1" d="M497.57,0H41A41.16,41.16,0,0,0,0,41V497.57a41.16,41.16,0,0,0,41,41H218.72l43,43a11.38,11.38,0,0,0,16,0l43-43H497.57a41.16,41.16,0,0,0,41-41V41A41.16,41.16,0,0,0,497.57,0Z"/><path class="cls-2" d="M480.36,22.05H58.25A38.06,38.06,0,0,0,20.31,60V482.11a38,38,0,0,0,37.94,37.94H222.54l39.79,39.79a10.51,10.51,0,0,0,14.83,0L317,520.05H480.36a38.06,38.06,0,0,0,37.95-37.94V60A38.06,38.06,0,0,0,480.36,22.05Z"/><g id="jplsGt"><path class="cls-1" d="M176.36,492c0-.72.13-1.44.13-2.16q0-100.68,0-201.36c0-8,.62-16,1-24,.14-3.37.29-6.74.47-10.11.43-8.06.8-16.12,1.33-24.17.5-7.65,1.16-15.3,1.8-22.94.54-6.39,1.07-12.79,1.75-19.17.72-6.77,1.44-13.54,2.47-20.27,1.39-9,2.86-18,4.66-27a133.42,133.42,0,0,1,10.14-31.65c4.08-8.5,9.26-16.19,16.68-22.19a61.86,61.86,0,0,1,11.77-7.31q38.76-19,77.48-38.05c5-2.48,10.11-4.57,15.69-5.28,10.68-1.37,21-.39,30.62,4.85A21.34,21.34,0,0,1,361.58,50a14.83,14.83,0,0,1,1.4,4.68c.33,2.2-.74,4-2.36,5.41a5.52,5.52,0,0,1-1.29.92c-4.91,2.3-9.78,4.63-15.32,5.13a64.48,64.48,0,0,1-32.37-5.18,64.92,64.92,0,0,1-8.23-4.74,2.54,2.54,0,0,0-2.87-.25Q279.75,66,258.93,76c-.39.19-.76.44-1.35.78,2.91-.42,2.91-.42,3.41,1.31-1.09-.28-2.26-1.81-3.23.38.47.41,1,.9,1.52,1.31a38.92,38.92,0,0,0,12.3,5.85,67,67,0,0,0,19.79,2.73c2.83-.07,5.65-.47,8.55-.73L298,88.5c-8.18,3.75-16.34,7.53-24.54,11.22a80.47,80.47,0,0,0-21.55,14.7c-10.92,10-19.53,21.9-26.65,34.86-10.11,18.41-16.68,38.11-21.09,58.58-2.23,10.36-3.84,20.81-5,31.33-.38,3.29-.64,6.58-.92,9.88-.3,3.54-.6,7.08-.83,10.63-.4,6.27-.8,12.54-1.09,18.82-.17,3.63-.19,7.27-.2,10.91q0,100.08,0,200.17c0,.78.1,1.57.16,2.35Z"/><path class="cls-1" d="M263.55,77.12l1.48-.71.11.2-1.49.81Z"/></g></svg>