<svg id="Livello_1" data-name="Livello 1" xmlns="http://www.w3.org/2000/svg" viewBox="0 0 538.61 584.95"><defs><style>.cls-1,.cls-3{fill:#fff;}.cls-2{fill:#8c6239;}.cls-3{font-size:326.66px;font-family:BauhausStd-Light, Bauhaus Std;}</style></defs><title>profile_2</title><path class="cls-1" d="M497.57,0H41A41.16,41.16,0,0,0,0,41V497.57a41.16,41.16,0,0,0,41,41H218.72l43,43a11.38,11.38,0,0,0,16,0l43-43H497.57a41.16,41.16,0,0,0,41-41V41A41.16,41.16,0,0,0,497.57,0Z"/><path class="cls-2" d="M480.36,22.05H58.25A38.06,38.06,0,0,0,20.31,60V482.11a38,38,0,0,0,37.94,37.94H222.54l39.79,39.79a10.51,10.51,0,0,0,14.83,0L317,520.05H480.36a38.06,38.06,0,0,0,37.95-37.94V60A38.06,38.06,0,0,0,480.36,22.05Z"/><text class="cls-3" transform="translate(112.87 365.39)">p2</text></svg>