<svg id="Livello_1" data-name="Livello 1" xmlns="http://www.w3.org/2000/svg" viewBox="0 0 38 27"><defs><style>.cls-1{fill:#56b68b;}</style></defs><title>program-status</title><g id="Asset"><g id="ProgramStatus"><path id="Fill-1" class="cls-1" d="M8.82,11.85a6.5,6.5,0,0,0,0,13H29.66a6.5,6.5,0,0,0,0-13H28.17a.8.8,0,0,1-.58-.26.81.81,0,0,1-.22-.6,1,1,0,0,1,0-.17c0-.08,0-.17,0-.24a8.15,8.15,0,1,0-16.3,0,2,2,0,0,0,0,.24c0,.06,0,.12,0,.17a.82.82,0,0,1-.81.86ZM29.66,26.48H8.82a8.13,8.13,0,0,1,0-16.26h.66a9.76,9.76,0,0,1,19.52,0h.66a8.13,8.13,0,0,1,0,16.26Z"/><path id="Fill-4" class="cls-1" d="M17.43,21.11a.84.84,0,0,1-.58-.24l-3.38-3.4a.83.83,0,0,1,0-1.15.81.81,0,0,1,1.15,0l2.81,2.82,6.05-6.09a.81.81,0,0,1,1.15,0,.83.83,0,0,1,0,1.15L18,20.87a.82.82,0,0,1-.57.24"/></g></g></svg>